<svg width="100%" height="100%" viewBox="0 0 620 407" fill="none" xmlns="http://www.w3.org/2000/svg">
<path d="M309.994 126.926C279.09 126.926 249.451 140.108 227.597 163.571C205.744 187.035 193.467 218.858 193.467 252.041H257.37C257.369 250.632 257.418 249.224 257.516 247.819C257.614 246.414 257.761 245.013 257.956 243.62C258.152 242.227 258.396 240.842 258.688 239.469C258.98 238.095 259.32 236.734 259.707 235.387C260.094 234.041 260.527 232.71 261.007 231.399C261.486 230.087 262.011 228.795 262.581 227.525C263.15 226.256 263.763 225.01 264.419 223.79C265.075 222.57 265.774 221.376 266.513 220.213C267.252 219.048 268.032 217.914 268.85 216.812C269.668 215.711 270.525 214.642 271.417 213.61C272.31 212.577 273.238 211.58 274.199 210.622C275.161 209.663 276.157 208.744 277.183 207.865C278.209 206.987 279.265 206.15 280.349 205.356C281.433 204.562 282.545 203.812 283.681 203.108C284.818 202.403 285.978 201.745 287.161 201.134C288.343 200.522 289.546 199.959 290.768 199.444C291.99 198.929 293.229 198.464 294.483 198.048C295.736 197.633 297.004 197.268 298.283 196.955C299.563 196.641 300.853 196.379 302.151 196.169C303.448 195.959 304.753 195.801 306.061 195.695C307.37 195.59 308.681 195.537 309.994 195.537C310.445 195.531 310.897 195.531 311.349 195.537C311.8 195.549 312.252 195.568 312.703 195.594C313.154 195.619 313.605 195.65 314.055 195.688C314.505 195.726 314.955 195.77 315.404 195.82C315.854 195.871 316.303 195.927 316.751 195.99C317.199 196.052 317.646 196.12 318.092 196.194C318.539 196.269 318.984 196.349 319.428 196.436C319.873 196.523 320.316 196.617 320.759 196.716C321.201 196.816 321.642 196.922 322.081 197.033C322.521 197.145 322.959 197.262 323.396 197.385C323.833 197.509 324.268 197.638 324.701 197.774C325.135 197.91 325.567 198.051 325.998 198.199C326.428 198.346 326.856 198.499 327.283 198.659C327.71 198.818 328.135 198.983 328.557 199.154C328.98 199.325 329.401 199.503 329.819 199.686C330.238 199.868 330.654 200.057 331.068 200.251C331.482 200.445 331.893 200.645 332.302 200.85C332.711 201.056 333.118 201.267 333.522 201.484C333.926 201.701 334.327 201.924 334.726 202.151C335.125 202.38 335.521 202.613 335.914 202.852C336.307 203.091 336.697 203.335 337.085 203.585C337.472 203.834 337.856 204.089 338.237 204.349C338.618 204.61 338.997 204.875 339.372 205.146C339.746 205.417 340.118 205.693 340.486 205.974C340.854 206.255 341.219 206.541 341.58 206.832C341.941 207.123 342.299 207.42 342.653 207.721C343.007 208.022 343.358 208.327 343.705 208.638C344.052 208.949 344.395 209.264 344.735 209.584C345.074 209.904 345.409 210.229 345.741 210.559C346.072 210.888 346.4 211.222 346.723 211.56C347.047 211.899 347.366 212.242 347.681 212.59C347.996 212.937 348.307 213.289 348.614 213.645C348.921 214 349.224 214.36 349.522 214.725C349.821 215.089 350.114 215.457 350.403 215.83C350.693 216.202 350.978 216.579 351.258 216.959C351.538 217.34 351.814 217.724 352.085 218.112C352.356 218.5 352.623 218.892 352.884 219.287C353.146 219.682 353.403 220.081 353.655 220.483C353.908 220.885 354.155 221.292 354.397 221.701C354.64 222.11 354.877 222.523 355.11 222.938C355.342 223.354 355.57 223.773 355.792 224.195C356.015 224.618 356.232 225.043 356.445 225.471C356.657 225.899 356.864 226.33 357.066 226.764C357.268 227.197 357.465 227.634 357.657 228.073C357.848 228.512 358.034 228.954 358.215 229.399C358.395 229.843 358.571 230.29 358.741 230.74C358.911 231.189 359.076 231.64 359.235 232.094C359.395 232.548 359.549 233.004 359.697 233.462C359.845 233.92 359.988 234.38 360.126 234.842C360.263 235.304 360.395 235.769 360.522 236.235C360.648 236.7 360.769 237.167 360.884 237.636C360.999 238.105 361.108 238.576 361.211 239.048C361.315 239.52 361.413 239.993 361.506 240.468C361.598 240.942 361.685 241.419 361.766 241.896C361.846 242.373 361.921 242.851 361.99 243.33C362.06 243.81 362.124 244.29 362.183 244.771C362.241 245.252 362.293 245.734 362.339 246.216C362.386 246.699 362.427 247.182 362.463 247.665C362.498 248.149 362.527 248.633 362.551 249.118C362.574 249.602 362.591 250.087 362.602 250.572C362.615 251.056 362.623 251.541 362.625 252.026H426.529C426.528 218.843 414.251 187.019 392.398 163.555C370.544 140.092 340.905 126.91 310 126.91L309.994 126.926Z" fill="#31C5C7"/>
<path d="M426.525 70.0293H362.621C362.622 71.4385 362.573 72.8473 362.475 74.2526C362.377 75.6576 362.23 77.0581 362.035 78.4513C361.839 79.8444 361.595 81.2292 361.303 82.6027C361.011 83.9764 360.672 85.338 360.285 86.6844C359.898 88.0308 359.464 89.3611 358.985 90.6727C358.506 91.9845 357.981 93.2768 357.411 94.5464C356.842 95.8159 356.229 97.0618 355.572 98.2821C354.916 99.502 354.218 100.695 353.479 101.859C352.739 103.023 351.96 104.158 351.141 105.259C350.323 106.361 349.467 107.429 348.574 108.462C347.682 109.495 346.754 110.491 345.791 111.45C344.83 112.408 343.835 113.327 342.809 114.206C341.783 115.084 340.727 115.922 339.642 116.716C338.558 117.509 337.446 118.259 336.31 118.964C335.173 119.668 334.013 120.327 332.83 120.938C331.648 121.549 330.445 122.113 329.224 122.628C328.002 123.142 326.763 123.608 325.509 124.023C324.255 124.439 322.987 124.804 321.708 125.117C320.429 125.43 319.139 125.692 317.841 125.902C316.544 126.112 315.239 126.27 313.931 126.376C312.622 126.481 311.31 126.534 309.997 126.534C308.685 126.534 307.374 126.481 306.065 126.376C304.756 126.27 303.452 126.112 302.154 125.902C300.857 125.692 299.567 125.43 298.287 125.117C297.008 124.803 295.74 124.439 294.486 124.023C293.233 123.608 291.994 123.142 290.772 122.628C289.55 122.113 288.347 121.549 287.164 120.938C285.982 120.327 284.822 119.668 283.685 118.964C282.549 118.259 281.437 117.509 280.353 116.716C279.269 115.922 278.213 115.084 277.187 114.206C276.161 113.327 275.165 112.408 274.203 111.45C273.242 110.491 272.314 109.495 271.421 108.462C270.529 107.429 269.672 106.361 268.853 105.259C268.035 104.158 267.256 103.023 266.517 101.859C265.778 100.695 265.079 99.502 264.423 98.2821C263.767 97.0618 263.154 95.8159 262.585 94.5464C262.015 93.2768 261.49 91.9845 261.011 90.6727C260.531 89.3611 260.098 88.0308 259.711 86.6844C259.324 85.338 258.984 83.9764 258.692 82.6027C258.4 81.2292 258.156 79.8445 257.96 78.4513C257.765 77.0581 257.618 75.6576 257.52 74.2526C257.421 72.8473 257.372 71.4386 257.371 70.0293H193.468C193.468 103.212 205.745 135.037 227.598 158.501C249.451 181.965 279.091 195.147 309.996 195.147C325.299 195.147 340.452 191.911 354.59 185.623C368.728 179.336 381.574 170.12 392.395 158.501C403.215 146.883 411.799 133.09 417.655 117.91C423.511 102.73 426.525 86.46 426.525 70.0293H426.525Z" fill="#131D40"/>
<path d="M230.11 161.033C231.108 162.073 232.123 163.094 233.155 164.096C235.067 165.896 237.033 167.628 239.051 169.29C241.068 170.952 243.135 172.542 245.249 174.059C247.363 175.576 249.522 177.018 251.724 178.383C253.925 179.748 256.168 181.035 258.448 182.242C260.729 183.45 263.045 184.576 265.395 185.621C267.743 186.666 270.123 187.628 272.531 188.506C274.939 189.383 277.373 190.175 279.829 190.882C282.284 191.588 284.761 192.208 287.255 192.741C289.748 193.274 292.257 193.719 294.778 194.075C297.299 194.431 299.83 194.699 302.367 194.878C304.904 195.056 307.446 195.146 309.988 195.146C310.848 195.144 311.707 195.131 312.566 195.108C313.425 195.088 314.283 195.058 315.142 195.017C316.001 194.976 316.859 194.924 317.717 194.862C318.574 194.801 319.431 194.729 320.287 194.647C321.142 194.565 321.997 194.473 322.851 194.371C323.706 194.269 324.559 194.157 325.411 194.035C326.263 193.913 327.113 193.78 327.962 193.638C328.811 193.496 329.659 193.343 330.504 193.18C331.351 193.018 332.195 192.845 333.038 192.663C333.88 192.48 334.72 192.288 335.558 192.086C336.397 191.883 337.234 191.671 338.068 191.448C338.902 191.226 339.733 190.994 340.562 190.752C341.392 190.51 342.218 190.258 343.043 189.996C343.867 189.734 344.688 189.463 345.507 189.182C346.325 188.901 347.141 188.61 347.953 188.309C348.766 188.008 349.575 187.698 350.381 187.378C351.187 187.058 351.99 186.729 352.789 186.391C353.589 186.052 354.384 185.703 355.176 185.345C355.968 184.987 356.757 184.619 357.541 184.243C358.326 183.866 359.106 183.481 359.883 183.086C360.66 182.691 361.432 182.287 362.201 181.873C362.969 181.46 363.733 181.038 364.492 180.606C365.252 180.175 366.007 179.734 366.757 179.284C367.508 178.835 368.254 178.376 368.995 177.909C369.736 177.441 370.472 176.965 371.203 176.48C371.935 175.996 372.661 175.502 373.382 175C374.104 174.498 374.82 173.988 375.53 173.469C376.241 172.95 376.946 172.423 377.645 171.887C378.345 171.351 379.039 170.807 379.728 170.255C380.416 169.703 381.099 169.142 381.776 168.574C382.453 168.005 383.124 167.429 383.789 166.844C384.454 166.26 385.113 165.668 385.766 165.068C386.419 164.468 387.065 163.86 387.706 163.245C388.346 162.63 388.979 162.006 389.607 161.376C389.708 161.273 389.809 161.169 389.91 161.066C368.302 139.157 339.714 126.941 309.994 126.917C280.293 126.941 251.722 139.142 230.118 161.027L230.11 161.033Z" fill="#278D9A"/>
<path d="M309.997 70.0293C329.238 70.0293 344.836 54.4311 344.836 35.19C344.836 15.9488 329.238 0.350677 309.997 0.350677C290.756 0.350677 275.157 15.9488 275.157 35.19C275.157 54.4311 290.756 70.0293 309.997 70.0293Z" fill="#31C5C7"/>
</svg>
