<svg width="620" height="407" viewBox="0 0 620 407" fill="none" xmlns="http://www.w3.org/2000/svg">
<path d="M4.8527 343.959C4.8527 337.026 6.3527 330.859 9.3527 325.459C12.3527 319.992 16.5194 315.759 21.8527 312.759C27.2527 309.692 33.3527 308.159 40.1527 308.159C48.486 308.159 55.6194 310.359 61.5527 314.759C67.486 319.159 71.4527 325.159 73.4527 332.759H54.6527C53.2527 329.826 51.2527 327.592 48.6527 326.059C46.1194 324.526 43.2194 323.759 39.9527 323.759C34.686 323.759 30.4194 325.592 27.1527 329.259C23.886 332.926 22.2527 337.826 22.2527 343.959C22.2527 350.092 23.886 354.992 27.1527 358.659C30.4194 362.326 34.686 364.159 39.9527 364.159C43.2194 364.159 46.1194 363.392 48.6527 361.859C51.2527 360.326 53.2527 358.092 54.6527 355.159H73.4527C71.4527 362.759 67.486 368.759 61.5527 373.159C55.6194 377.492 48.486 379.659 40.1527 379.659C33.3527 379.659 27.2527 378.159 21.8527 375.159C16.5194 372.092 12.3527 367.859 9.3527 362.459C6.3527 357.059 4.8527 350.892 4.8527 343.959ZM109.325 379.959C103.858 379.959 98.9246 378.792 94.5246 376.459C90.1912 374.126 86.7579 370.792 84.2246 366.459C81.7579 362.126 80.5246 357.059 80.5246 351.259C80.5246 345.526 81.7912 340.492 84.3246 336.159C86.8579 331.759 90.3246 328.392 94.7246 326.059C99.1246 323.726 104.058 322.559 109.525 322.559C114.991 322.559 119.925 323.726 124.325 326.059C128.725 328.392 132.191 331.759 134.725 336.159C137.258 340.492 138.525 345.526 138.525 351.259C138.525 356.992 137.225 362.059 134.625 366.459C132.091 370.792 128.591 374.126 124.125 376.459C119.725 378.792 114.791 379.959 109.325 379.959ZM109.325 365.159C112.591 365.159 115.358 363.959 117.625 361.559C119.958 359.159 121.125 355.726 121.125 351.259C121.125 346.792 119.991 343.359 117.725 340.959C115.525 338.559 112.791 337.359 109.525 337.359C106.191 337.359 103.425 338.559 101.225 340.959C99.0246 343.292 97.9246 346.726 97.9246 351.259C97.9246 355.726 98.9912 359.159 101.125 361.559C103.325 363.959 106.058 365.159 109.325 365.159ZM181.596 322.759C188.13 322.759 193.33 324.892 197.196 329.159C201.13 333.359 203.096 339.159 203.096 346.559V379.159H186.096V348.859C186.096 345.126 185.13 342.226 183.196 340.159C181.263 338.092 178.663 337.059 175.396 337.059C172.13 337.059 169.53 338.092 167.596 340.159C165.663 342.226 164.696 345.126 164.696 348.859V379.159H147.596V323.359H164.696V330.759C166.43 328.292 168.763 326.359 171.696 324.959C174.63 323.492 177.93 322.759 181.596 322.759ZM267.579 350.359C267.579 351.959 267.479 353.626 267.279 355.359H228.579C228.846 358.826 229.946 361.492 231.879 363.359C233.879 365.159 236.313 366.059 239.179 366.059C243.446 366.059 246.413 364.259 248.079 360.659H266.279C265.346 364.326 263.646 367.626 261.179 370.559C258.779 373.492 255.746 375.792 252.079 377.459C248.413 379.126 244.313 379.959 239.779 379.959C234.313 379.959 229.446 378.792 225.179 376.459C220.913 374.126 217.579 370.792 215.179 366.459C212.779 362.126 211.579 357.059 211.579 351.259C211.579 345.459 212.746 340.392 215.079 336.059C217.479 331.726 220.813 328.392 225.079 326.059C229.346 323.726 234.246 322.559 239.779 322.559C245.179 322.559 249.979 323.692 254.179 325.959C258.379 328.226 261.646 331.459 263.979 335.659C266.379 339.859 267.579 344.759 267.579 350.359ZM250.079 345.859C250.079 342.926 249.079 340.592 247.079 338.859C245.079 337.126 242.579 336.259 239.579 336.259C236.713 336.259 234.279 337.092 232.279 338.759C230.346 340.426 229.146 342.792 228.679 345.859H250.079ZM319.6 379.159L305.3 357.659L292.7 379.159H273.3L295.8 343.459L272.8 308.959H292.7L306.8 330.159L319.2 308.959H338.6L316.3 344.359L339.5 379.159H319.6ZM365.185 331.259C366.851 328.659 369.151 326.559 372.085 324.959C375.018 323.359 378.451 322.559 382.385 322.559C386.985 322.559 391.151 323.726 394.885 326.059C398.618 328.392 401.551 331.726 403.685 336.059C405.885 340.392 406.985 345.426 406.985 351.159C406.985 356.892 405.885 361.959 403.685 366.359C401.551 370.692 398.618 374.059 394.885 376.459C391.151 378.792 386.985 379.959 382.385 379.959C378.518 379.959 375.085 379.159 372.085 377.559C369.151 375.959 366.851 373.892 365.185 371.359V405.759H348.085V323.359H365.185V331.259ZM389.585 351.159C389.585 346.892 388.385 343.559 385.985 341.159C383.651 338.692 380.751 337.459 377.285 337.459C373.885 337.459 370.985 338.692 368.585 341.159C366.251 343.626 365.085 346.992 365.085 351.259C365.085 355.526 366.251 358.892 368.585 361.359C370.985 363.826 373.885 365.059 377.285 365.059C380.685 365.059 383.585 363.826 385.985 361.359C388.385 358.826 389.585 355.426 389.585 351.159ZM468.556 350.359C468.556 351.959 468.456 353.626 468.256 355.359H429.556C429.822 358.826 430.922 361.492 432.856 363.359C434.856 365.159 437.289 366.059 440.156 366.059C444.422 366.059 447.389 364.259 449.056 360.659H467.256C466.323 364.326 464.623 367.626 462.156 370.559C459.756 373.492 456.722 375.792 453.056 377.459C449.389 379.126 445.289 379.959 440.756 379.959C435.289 379.959 430.422 378.792 426.156 376.459C421.889 374.126 418.556 370.792 416.156 366.459C413.756 362.126 412.556 357.059 412.556 351.259C412.556 345.459 413.722 340.392 416.056 336.059C418.456 331.726 421.789 328.392 426.056 326.059C430.322 323.726 435.222 322.559 440.756 322.559C446.156 322.559 450.956 323.692 455.156 325.959C459.356 328.226 462.622 331.459 464.956 335.659C467.356 339.859 468.556 344.759 468.556 350.359ZM451.056 345.859C451.056 342.926 450.056 340.592 448.056 338.859C446.056 337.126 443.556 336.259 440.556 336.259C437.689 336.259 435.256 337.092 433.256 338.759C431.322 340.426 430.122 342.792 429.656 345.859H451.056ZM494.677 332.659C496.677 329.592 499.177 327.192 502.177 325.459C505.177 323.659 508.51 322.759 512.177 322.759V340.859H507.477C503.21 340.859 500.01 341.792 497.877 343.659C495.744 345.459 494.677 348.659 494.677 353.259V379.159H477.577V323.359H494.677V332.659ZM551.45 364.659V379.159H542.75C536.55 379.159 531.717 377.659 528.25 374.659C524.784 371.592 523.05 366.626 523.05 359.759V337.559H516.25V323.359H523.05V309.759H540.15V323.359H551.35V337.559H540.15V359.959C540.15 361.626 540.55 362.826 541.35 363.559C542.15 364.292 543.484 364.659 545.35 364.659H551.45ZM586.375 379.959C580.909 379.959 575.975 378.792 571.575 376.459C567.242 374.126 563.809 370.792 561.275 366.459C558.809 362.126 557.575 357.059 557.575 351.259C557.575 345.526 558.842 340.492 561.375 336.159C563.909 331.759 567.375 328.392 571.775 326.059C576.175 323.726 581.109 322.559 586.575 322.559C592.042 322.559 596.975 323.726 601.375 326.059C605.775 328.392 609.242 331.759 611.775 336.159C614.309 340.492 615.575 345.526 615.575 351.259C615.575 356.992 614.275 362.059 611.675 366.459C609.142 370.792 605.642 374.126 601.175 376.459C596.775 378.792 591.842 379.959 586.375 379.959ZM586.375 365.159C589.642 365.159 592.409 363.959 594.675 361.559C597.009 359.159 598.175 355.726 598.175 351.259C598.175 346.792 597.042 343.359 594.775 340.959C592.575 338.559 589.842 337.359 586.575 337.359C583.242 337.359 580.475 338.559 578.275 340.959C576.075 343.292 574.975 346.726 574.975 351.259C574.975 355.726 576.042 359.159 578.175 361.559C580.375 363.959 583.109 365.159 586.375 365.159Z" fill="black"/>
<path d="M309.994 126.926C279.09 126.926 249.451 140.108 227.597 163.571C205.744 187.035 193.467 218.858 193.467 252.041H257.37C257.369 250.632 257.418 249.224 257.516 247.819C257.614 246.414 257.761 245.013 257.956 243.62C258.152 242.227 258.396 240.842 258.688 239.469C258.98 238.095 259.32 236.734 259.707 235.387C260.094 234.041 260.527 232.71 261.007 231.399C261.486 230.087 262.011 228.795 262.581 227.525C263.15 226.256 263.763 225.01 264.419 223.79C265.075 222.57 265.774 221.376 266.513 220.213C267.252 219.048 268.032 217.914 268.85 216.812C269.668 215.711 270.525 214.642 271.417 213.61C272.31 212.577 273.238 211.58 274.199 210.622C275.161 209.663 276.157 208.744 277.183 207.865C278.209 206.987 279.265 206.15 280.349 205.356C281.433 204.562 282.545 203.812 283.681 203.108C284.818 202.403 285.978 201.745 287.161 201.134C288.343 200.522 289.546 199.959 290.768 199.444C291.99 198.929 293.229 198.464 294.483 198.048C295.736 197.633 297.004 197.268 298.283 196.955C299.563 196.641 300.853 196.379 302.151 196.169C303.448 195.959 304.753 195.801 306.061 195.695C307.37 195.59 308.681 195.537 309.994 195.537C310.445 195.531 310.897 195.531 311.349 195.537C311.8 195.549 312.252 195.568 312.703 195.594C313.154 195.619 313.605 195.65 314.055 195.688C314.505 195.726 314.955 195.77 315.404 195.82C315.854 195.871 316.303 195.927 316.751 195.99C317.199 196.052 317.646 196.12 318.092 196.194C318.539 196.269 318.984 196.349 319.428 196.436C319.873 196.523 320.316 196.617 320.759 196.716C321.201 196.816 321.642 196.922 322.081 197.033C322.521 197.145 322.959 197.262 323.396 197.385C323.833 197.509 324.268 197.638 324.701 197.774C325.135 197.91 325.567 198.051 325.998 198.199C326.428 198.346 326.856 198.499 327.283 198.659C327.71 198.818 328.135 198.983 328.557 199.154C328.98 199.325 329.401 199.503 329.819 199.686C330.238 199.868 330.654 200.057 331.068 200.251C331.482 200.445 331.893 200.645 332.302 200.85C332.711 201.056 333.118 201.267 333.522 201.484C333.926 201.701 334.327 201.924 334.726 202.151C335.125 202.38 335.521 202.613 335.914 202.852C336.307 203.091 336.697 203.335 337.085 203.585C337.472 203.834 337.856 204.089 338.237 204.349C338.618 204.61 338.997 204.875 339.372 205.146C339.746 205.417 340.118 205.693 340.486 205.974C340.854 206.255 341.219 206.541 341.58 206.832C341.941 207.123 342.299 207.42 342.653 207.721C343.007 208.022 343.358 208.327 343.705 208.638C344.052 208.949 344.395 209.264 344.735 209.584C345.074 209.904 345.409 210.229 345.741 210.559C346.072 210.888 346.4 211.222 346.723 211.56C347.047 211.899 347.366 212.242 347.681 212.59C347.996 212.937 348.307 213.289 348.614 213.645C348.921 214 349.224 214.36 349.522 214.725C349.821 215.089 350.114 215.457 350.403 215.83C350.693 216.202 350.978 216.579 351.258 216.959C351.538 217.34 351.814 217.724 352.085 218.112C352.356 218.5 352.623 218.892 352.884 219.287C353.146 219.682 353.403 220.081 353.655 220.483C353.908 220.885 354.155 221.292 354.397 221.701C354.64 222.11 354.877 222.523 355.11 222.938C355.342 223.354 355.57 223.773 355.792 224.195C356.015 224.618 356.232 225.043 356.445 225.471C356.657 225.899 356.864 226.33 357.066 226.764C357.268 227.197 357.465 227.634 357.657 228.073C357.848 228.512 358.034 228.954 358.215 229.399C358.395 229.843 358.571 230.29 358.741 230.74C358.911 231.189 359.076 231.64 359.235 232.094C359.395 232.548 359.549 233.004 359.697 233.462C359.845 233.92 359.988 234.38 360.126 234.842C360.263 235.304 360.395 235.769 360.522 236.235C360.648 236.7 360.769 237.167 360.884 237.636C360.999 238.105 361.108 238.576 361.211 239.048C361.315 239.52 361.413 239.993 361.506 240.468C361.598 240.942 361.685 241.419 361.766 241.896C361.846 242.373 361.921 242.851 361.99 243.33C362.06 243.81 362.124 244.29 362.183 244.771C362.241 245.252 362.293 245.734 362.339 246.216C362.386 246.699 362.427 247.182 362.463 247.665C362.498 248.149 362.527 248.633 362.551 249.118C362.574 249.602 362.591 250.087 362.602 250.572C362.615 251.056 362.623 251.541 362.625 252.026H426.529C426.528 218.843 414.251 187.019 392.398 163.555C370.544 140.092 340.905 126.91 310 126.91L309.994 126.926Z" fill="#31C5C7"/>
<path d="M426.525 70.0293H362.621C362.622 71.4385 362.573 72.8473 362.475 74.2526C362.377 75.6576 362.23 77.0581 362.035 78.4513C361.839 79.8444 361.595 81.2292 361.303 82.6027C361.011 83.9764 360.672 85.338 360.285 86.6844C359.898 88.0308 359.464 89.3611 358.985 90.6727C358.506 91.9845 357.981 93.2768 357.411 94.5464C356.842 95.8159 356.229 97.0618 355.572 98.2821C354.916 99.502 354.218 100.695 353.479 101.859C352.739 103.023 351.96 104.158 351.141 105.259C350.323 106.361 349.467 107.429 348.574 108.462C347.682 109.495 346.754 110.491 345.791 111.45C344.83 112.408 343.835 113.327 342.809 114.206C341.783 115.084 340.727 115.922 339.642 116.716C338.558 117.509 337.446 118.259 336.31 118.964C335.173 119.668 334.013 120.327 332.83 120.938C331.648 121.549 330.445 122.113 329.224 122.628C328.002 123.142 326.763 123.608 325.509 124.023C324.255 124.439 322.987 124.804 321.708 125.117C320.429 125.43 319.139 125.692 317.841 125.902C316.544 126.112 315.239 126.27 313.931 126.376C312.622 126.481 311.31 126.534 309.997 126.534C308.685 126.534 307.374 126.481 306.065 126.376C304.756 126.27 303.452 126.112 302.154 125.902C300.857 125.692 299.567 125.43 298.287 125.117C297.008 124.803 295.74 124.439 294.486 124.023C293.233 123.608 291.994 123.142 290.772 122.628C289.55 122.113 288.347 121.549 287.164 120.938C285.982 120.327 284.822 119.668 283.685 118.964C282.549 118.259 281.437 117.509 280.353 116.716C279.269 115.922 278.213 115.084 277.187 114.206C276.161 113.327 275.165 112.408 274.203 111.45C273.242 110.491 272.314 109.495 271.421 108.462C270.529 107.429 269.672 106.361 268.853 105.259C268.035 104.158 267.256 103.023 266.517 101.859C265.778 100.695 265.079 99.502 264.423 98.2821C263.767 97.0618 263.154 95.8159 262.585 94.5464C262.015 93.2768 261.49 91.9845 261.011 90.6727C260.531 89.3611 260.098 88.0308 259.711 86.6844C259.324 85.338 258.984 83.9764 258.692 82.6027C258.4 81.2292 258.156 79.8445 257.96 78.4513C257.765 77.0581 257.618 75.6576 257.52 74.2526C257.421 72.8473 257.372 71.4386 257.371 70.0293H193.468C193.468 103.212 205.745 135.037 227.598 158.501C249.451 181.965 279.091 195.147 309.996 195.147C325.299 195.147 340.452 191.911 354.59 185.623C368.728 179.336 381.574 170.12 392.395 158.501C403.215 146.883 411.799 133.09 417.655 117.91C423.511 102.73 426.525 86.46 426.525 70.0293H426.525Z" fill="#131D40"/>
<path d="M230.11 161.033C231.108 162.073 232.123 163.094 233.155 164.096C235.067 165.896 237.033 167.628 239.051 169.29C241.068 170.952 243.135 172.542 245.249 174.059C247.363 175.576 249.522 177.018 251.724 178.383C253.925 179.748 256.168 181.035 258.448 182.242C260.729 183.45 263.045 184.576 265.395 185.621C267.743 186.666 270.123 187.628 272.531 188.506C274.939 189.383 277.373 190.175 279.829 190.882C282.284 191.588 284.761 192.208 287.255 192.741C289.748 193.274 292.257 193.719 294.778 194.075C297.299 194.431 299.83 194.699 302.367 194.878C304.904 195.056 307.446 195.146 309.988 195.146C310.848 195.144 311.707 195.131 312.566 195.108C313.425 195.088 314.283 195.058 315.142 195.017C316.001 194.976 316.859 194.924 317.717 194.862C318.574 194.801 319.431 194.729 320.287 194.647C321.142 194.565 321.997 194.473 322.851 194.371C323.706 194.269 324.559 194.157 325.411 194.035C326.263 193.913 327.113 193.78 327.962 193.638C328.811 193.496 329.659 193.343 330.504 193.18C331.351 193.018 332.195 192.845 333.038 192.663C333.88 192.48 334.72 192.288 335.558 192.086C336.397 191.883 337.234 191.671 338.068 191.448C338.902 191.226 339.733 190.994 340.562 190.752C341.392 190.51 342.218 190.258 343.043 189.996C343.867 189.734 344.688 189.463 345.507 189.182C346.325 188.901 347.141 188.61 347.953 188.309C348.766 188.008 349.575 187.698 350.381 187.378C351.187 187.058 351.99 186.729 352.789 186.391C353.589 186.052 354.384 185.703 355.176 185.345C355.968 184.987 356.757 184.619 357.541 184.243C358.326 183.866 359.106 183.481 359.883 183.086C360.66 182.691 361.432 182.287 362.201 181.873C362.969 181.46 363.733 181.038 364.492 180.606C365.252 180.175 366.007 179.734 366.757 179.284C367.508 178.835 368.254 178.376 368.995 177.909C369.736 177.441 370.472 176.965 371.203 176.48C371.935 175.996 372.661 175.502 373.382 175C374.104 174.498 374.82 173.988 375.53 173.469C376.241 172.95 376.946 172.423 377.645 171.887C378.345 171.351 379.039 170.807 379.728 170.255C380.416 169.703 381.099 169.142 381.776 168.574C382.453 168.005 383.124 167.429 383.789 166.844C384.454 166.26 385.113 165.668 385.766 165.068C386.419 164.468 387.065 163.86 387.706 163.245C388.346 162.63 388.979 162.006 389.607 161.376C389.708 161.273 389.809 161.169 389.91 161.066C368.302 139.157 339.714 126.941 309.994 126.917C280.293 126.941 251.722 139.142 230.118 161.027L230.11 161.033Z" fill="#278D9A"/>
<path d="M309.997 70.0293C329.238 70.0293 344.836 54.4311 344.836 35.19C344.836 15.9488 329.238 0.350677 309.997 0.350677C290.756 0.350677 275.157 15.9488 275.157 35.19C275.157 54.4311 290.756 70.0293 309.997 70.0293Z" fill="#31C5C7"/>
</svg>
